<svg width="163" height="43" viewBox="0 0 163 43" fill="none" xmlns="http://www.w3.org/2000/svg">
<path d="M19.3114 27.0175H6.94872L4.38977 32.8333H0.966767L11.5017 9.57009H14.7917L25.3599 32.8333H21.8704L19.3114 27.0175ZM18.1483 24.3588L13.1301 12.9599L8.11188 24.3588H18.1483ZM44.4829 20.7696C45.8344 21.1463 46.8978 21.8331 47.6733 22.8301C48.4487 23.8049 48.8364 25.0456 48.8364 26.5522C48.8364 28.5683 48.0721 30.1192 46.5433 31.2048C45.0368 32.2904 42.8323 32.8333 39.93 32.8333H28.8301V9.57009H39.2653C41.9239 9.57009 43.9733 10.1018 45.4134 11.1653C46.8757 12.2287 47.6068 13.7021 47.6068 15.5853C47.6068 16.8038 47.3188 17.8562 46.7427 18.7424C46.1889 19.6286 45.4356 20.3044 44.4829 20.7696ZM32.1534 12.262V19.7062H38.9662C40.6722 19.7062 41.9793 19.396 42.8877 18.7757C43.8182 18.1332 44.2835 17.2026 44.2835 15.9841C44.2835 14.7655 43.8182 13.8461 42.8877 13.2257C41.9793 12.5832 40.6722 12.262 38.9662 12.262H32.1534ZM39.797 30.1414C41.6802 30.1414 43.0982 29.8312 44.0509 29.2108C45.0035 28.5905 45.4799 27.6157 45.4799 26.2863C45.4799 23.6942 43.5856 22.3981 39.797 22.3981H32.1534V30.1414H39.797ZM64.3841 33.0991C62.0577 33.0991 59.953 32.5895 58.0698 31.5704C56.2087 30.5291 54.7465 29.1111 53.683 27.3166C52.6195 25.4998 52.0878 23.4615 52.0878 21.2017C52.0878 18.9418 52.6195 16.9146 53.683 15.12C54.7465 13.3033 56.2198 11.8853 58.103 10.8662C59.9862 9.82488 62.091 9.30423 64.4173 9.30423C66.234 9.30423 67.8957 9.61441 69.4022 10.2348C70.9088 10.833 72.1938 11.7302 73.2573 12.9266L71.0971 15.0203C69.3469 13.1814 67.1646 12.262 64.5502 12.262C62.8221 12.262 61.2601 12.6497 59.8644 13.4251C58.4686 14.2006 57.3719 15.2751 56.5743 16.6487C55.7988 18.0002 55.4111 19.5179 55.4111 21.2017C55.4111 22.8855 55.7988 24.4142 56.5743 25.7878C57.3719 27.1393 58.4686 28.2028 59.8644 28.9782C61.2601 29.7537 62.8221 30.1414 64.5502 30.1414C67.1424 30.1414 69.3247 29.2108 71.0971 27.3498L73.2573 29.4435C72.1938 30.6399 70.8977 31.5482 69.369 32.1686C67.8625 32.7889 66.2008 33.0991 64.3841 33.0991Z" fill="#B7B7B7"/>
<path d="M105.993 8.76946C105.992 8.78178 105.991 8.79389 105.99 8.80599C105.987 8.82778 105.731 11.0631 106.021 13.9695C106.179 15.5596 106.526 17.5546 107.262 19.5235C107.898 18.4651 108.688 17.4329 109.625 16.4397C110.751 15.2466 112.091 14.1055 113.607 13.0483C116.085 11.3202 118.196 10.3956 118.43 10.2951L118.921 10.0624C118.059 9.41055 117.117 8.84759 116.106 8.38608C112.936 6.94059 109.424 6.64546 106.086 7.52094L105.993 8.76946Z" fill="#B7B7B7"/>
<path d="M119.002 11.9113C118.991 11.9167 118.98 11.9217 118.969 11.9265C118.948 11.9349 116.882 12.8218 114.5 14.4939C113.35 15.301 111.999 16.3854 110.771 17.7167L111.499 18.3167C114.392 18.5526 117.079 19.4934 119.026 20.3653C121.742 21.5815 123.58 22.8872 123.782 23.0331L124.217 23.3228C124.536 21.0613 124.291 18.7431 123.473 16.5367C122.742 14.5651 121.602 12.8142 120.137 11.3713L119.002 11.9113Z" fill="#B7B7B7"/>
<path d="M122.785 24.2932C122.775 24.2863 122.765 24.2791 122.755 24.2715C122.738 24.2583 120.944 22.904 118.31 21.6783C117.035 21.0849 115.417 20.457 113.644 20.0664L113.483 20.9984C114.712 23.6607 115.222 26.5074 115.424 28.6676C115.706 31.6754 115.476 33.9597 115.449 34.2117L115.412 34.7341C118.755 33.3388 121.422 30.744 122.956 27.374C123.308 26.6014 123.591 25.8083 123.805 25.0023L122.785 24.2932Z" fill="#B7B7B7"/>
<path d="M113.918 34.0688C113.919 34.0563 113.92 34.044 113.921 34.0318C113.924 34.0097 114.18 31.7459 113.891 28.8028C113.751 27.3791 113.463 25.635 112.89 23.8721L111.979 24.2008C111.48 24.9154 110.912 25.6161 110.276 26.2985C109.15 27.5068 107.811 28.6624 106.295 29.7331C103.818 31.4831 101.707 32.4195 101.472 32.5213L100.99 32.7527C101.851 33.4122 102.792 33.9814 103.802 34.4481C105.783 35.3632 107.898 35.8235 110.021 35.8235C111.295 35.8235 112.573 35.6574 113.826 35.3242L113.918 34.0688Z" fill="#B7B7B7"/>
<path d="M97.1217 18.5599C97.1317 18.5671 97.1416 18.5742 97.1514 18.5816C97.1688 18.5947 98.9631 19.9489 101.598 21.1743C102.872 21.7671 104.489 22.3938 106.26 22.7843L106.422 21.8432C105.198 19.1864 104.691 16.3474 104.488 14.1921C104.206 11.1854 104.436 8.90175 104.464 8.64967L104.501 8.1167C101.155 9.51108 98.4857 12.106 96.9505 15.4766C96.5981 16.2499 96.3148 17.0441 96.1006 17.8508L97.1217 18.5599Z" fill="#B7B7B7"/>
<path d="M100.904 30.9356C100.915 30.9304 100.926 30.9254 100.937 30.9206C100.957 30.912 103.025 30.0252 105.407 28.353C106.557 27.5449 107.91 26.4594 109.14 25.1265L108.412 24.5269C105.519 24.2905 102.833 23.35 100.885 22.4782C98.1691 21.2621 96.3306 19.9563 96.1284 19.8102L95.6934 19.5205C95.3749 21.7811 95.6199 24.0983 96.4374 26.3039C97.1689 28.2765 98.3099 30.0285 99.7763 31.4719L100.904 30.9356Z" fill="#B7B7B7"/>
<path d="M87.0234 15.0828H91.7241V19.1704H87.1597V33H81.8458V19.1704H79.0186V15.0828H81.8458V14.2653C81.8458 12.1761 82.459 10.5184 83.6852 9.29213C84.9342 8.06586 86.6828 7.45273 88.9309 7.45273C89.7257 7.45273 90.4751 7.54356 91.1791 7.72523C91.9058 7.88419 92.5076 8.12263 92.9844 8.44055L91.5879 12.2897C90.9747 11.8582 90.2594 11.6425 89.4419 11.6425C87.8296 11.6425 87.0234 12.5281 87.0234 14.2994V15.0828Z" fill="#B7B7B7"/>
<path d="M141.339 32.9358C140.806 33.3303 140.144 33.6319 139.356 33.8407C138.59 34.0263 137.778 34.1191 136.919 34.1191C134.692 34.1191 132.963 33.5507 131.734 32.4138C130.527 31.2768 129.924 29.6063 129.924 27.4021V19.7105H127.035V15.534H129.924V8.73315H135.353V15.534H140.017V19.7105H135.353V27.3324C135.353 28.1213 135.55 28.7362 135.945 29.177C136.363 29.5947 136.943 29.8035 137.685 29.8035C138.544 29.8035 139.274 29.5715 139.878 29.1074L141.339 32.9358Z" fill="#B7B7B7"/>
<path d="M152.719 34.1191C150.747 34.1191 148.972 33.7131 147.394 32.901C145.84 32.0657 144.621 30.9172 143.74 29.4555C142.858 27.9937 142.417 26.3347 142.417 24.4786C142.417 22.6224 142.858 20.9634 143.74 19.5016C144.621 18.0399 145.84 16.903 147.394 16.0909C148.972 15.2556 150.747 14.838 152.719 14.838C154.691 14.838 156.455 15.2556 158.009 16.0909C159.564 16.903 160.782 18.0399 161.664 19.5016C162.545 20.9634 162.986 22.6224 162.986 24.4786C162.986 26.3347 162.545 27.9937 161.664 29.4555C160.782 30.9172 159.564 32.0657 158.009 32.901C156.455 33.7131 154.691 34.1191 152.719 34.1191ZM152.719 29.6643C154.111 29.6643 155.248 29.2002 156.13 28.2721C157.035 27.3208 157.487 26.0563 157.487 24.4786C157.487 22.9008 157.035 21.6479 156.13 20.7198C155.248 19.7685 154.111 19.2928 152.719 19.2928C151.327 19.2928 150.178 19.7685 149.274 20.7198C148.369 21.6479 147.916 22.9008 147.916 24.4786C147.916 26.0563 148.369 27.3208 149.274 28.2721C150.178 29.2002 151.327 29.6643 152.719 29.6643Z" fill="#B7B7B7"/>
</svg>
